<mxfile host="app.diagrams.net" agent="Mozilla/5.0 (X11; Linux x86_64) AppleWebKit/537.36 (KHTML, like Gecko) Chrome/129.0.0.0 Safari/537.36" version="24.7.17">
  <diagram name="Page-1" id="juTB6MVJdAHUEsimJ1uh">
    <mxGraphModel dx="1050" dy="577" grid="1" gridSize="10" guides="1" tooltips="1" connect="1" arrows="1" fold="1" page="1" pageScale="1" pageWidth="1920" pageHeight="1200" math="0" shadow="0">
      <root>
        <mxCell id="0" />
        <mxCell id="1" parent="0" />
        <mxCell id="4RQrXysNxXmY_oEP2_3j-1" value="Buku" style="rounded=1;arcSize=10;whiteSpace=wrap;html=1;align=center;" parent="1" vertex="1">
          <mxGeometry x="1300" y="420" width="100" height="40" as="geometry" />
        </mxCell>
        <mxCell id="4RQrXysNxXmY_oEP2_3j-2" value="id_buku" style="ellipse;whiteSpace=wrap;html=1;align=center;fontStyle=4;" parent="1" vertex="1">
          <mxGeometry x="1370" y="320" width="100" height="40" as="geometry" />
        </mxCell>
        <mxCell id="4RQrXysNxXmY_oEP2_3j-3" value="ISBN" style="ellipse;whiteSpace=wrap;html=1;align=center;" parent="1" vertex="1">
          <mxGeometry x="1470" y="370" width="100" height="40" as="geometry" />
        </mxCell>
        <mxCell id="4RQrXysNxXmY_oEP2_3j-4" value="Judul_buku" style="ellipse;whiteSpace=wrap;html=1;align=center;" parent="1" vertex="1">
          <mxGeometry x="1480" y="440" width="100" height="40" as="geometry" />
        </mxCell>
        <mxCell id="4RQrXysNxXmY_oEP2_3j-5" value="nama_penulis" style="ellipse;whiteSpace=wrap;html=1;align=center;" parent="1" vertex="1">
          <mxGeometry x="1400" y="510" width="100" height="40" as="geometry" />
        </mxCell>
        <mxCell id="4RQrXysNxXmY_oEP2_3j-6" value="" style="endArrow=none;html=1;rounded=0;" parent="1" source="4RQrXysNxXmY_oEP2_3j-2" target="4RQrXysNxXmY_oEP2_3j-1" edge="1">
          <mxGeometry relative="1" as="geometry">
            <mxPoint x="1260" y="420" as="sourcePoint" />
            <mxPoint x="1420" y="420" as="targetPoint" />
          </mxGeometry>
        </mxCell>
        <mxCell id="4RQrXysNxXmY_oEP2_3j-7" value="" style="endArrow=none;html=1;rounded=0;" parent="1" source="4RQrXysNxXmY_oEP2_3j-3" target="4RQrXysNxXmY_oEP2_3j-1" edge="1">
          <mxGeometry relative="1" as="geometry">
            <mxPoint x="1443" y="379" as="sourcePoint" />
            <mxPoint x="1400" y="440" as="targetPoint" />
          </mxGeometry>
        </mxCell>
        <mxCell id="4RQrXysNxXmY_oEP2_3j-8" value="" style="endArrow=none;html=1;rounded=0;" parent="1" source="4RQrXysNxXmY_oEP2_3j-4" target="4RQrXysNxXmY_oEP2_3j-1" edge="1">
          <mxGeometry relative="1" as="geometry">
            <mxPoint x="1453" y="440" as="sourcePoint" />
            <mxPoint x="1410" y="501" as="targetPoint" />
          </mxGeometry>
        </mxCell>
        <mxCell id="4RQrXysNxXmY_oEP2_3j-9" value="" style="endArrow=none;html=1;rounded=0;" parent="1" source="4RQrXysNxXmY_oEP2_3j-5" target="4RQrXysNxXmY_oEP2_3j-1" edge="1">
          <mxGeometry relative="1" as="geometry">
            <mxPoint x="1373" y="480" as="sourcePoint" />
            <mxPoint x="1330" y="541" as="targetPoint" />
          </mxGeometry>
        </mxCell>
        <mxCell id="4RQrXysNxXmY_oEP2_3j-10" value="Anggota" style="rounded=1;arcSize=10;whiteSpace=wrap;html=1;align=center;" parent="1" vertex="1">
          <mxGeometry x="903" y="420" width="100" height="40" as="geometry" />
        </mxCell>
        <mxCell id="4RQrXysNxXmY_oEP2_3j-20" value="" style="group" parent="1" vertex="1" connectable="0">
          <mxGeometry x="923" y="510" width="60" height="40" as="geometry" />
        </mxCell>
        <mxCell id="4RQrXysNxXmY_oEP2_3j-17" value="" style="triangle;whiteSpace=wrap;html=1;rotation=-270;container=0;" parent="4RQrXysNxXmY_oEP2_3j-20" vertex="1">
          <mxGeometry x="10" y="-10" width="40" height="60" as="geometry" />
        </mxCell>
        <mxCell id="4RQrXysNxXmY_oEP2_3j-18" value="IS A" style="text;html=1;align=center;verticalAlign=middle;whiteSpace=wrap;rounded=0;rotation=0;container=0;" parent="4RQrXysNxXmY_oEP2_3j-20" vertex="1">
          <mxGeometry width="60" height="30" as="geometry" />
        </mxCell>
        <mxCell id="4RQrXysNxXmY_oEP2_3j-21" value="" style="endArrow=none;html=1;rounded=0;" parent="1" source="4RQrXysNxXmY_oEP2_3j-17" target="4RQrXysNxXmY_oEP2_3j-10" edge="1">
          <mxGeometry relative="1" as="geometry">
            <mxPoint x="953" y="510" as="sourcePoint" />
            <mxPoint x="1113" y="510" as="targetPoint" />
          </mxGeometry>
        </mxCell>
        <mxCell id="4RQrXysNxXmY_oEP2_3j-22" value="id_anggota" style="ellipse;whiteSpace=wrap;html=1;align=center;fontStyle=4;" parent="1" vertex="1">
          <mxGeometry x="763" y="360" width="100" height="40" as="geometry" />
        </mxCell>
        <mxCell id="4RQrXysNxXmY_oEP2_3j-23" value="nama" style="ellipse;whiteSpace=wrap;html=1;align=center;" parent="1" vertex="1">
          <mxGeometry x="743" y="410" width="100" height="40" as="geometry" />
        </mxCell>
        <mxCell id="4RQrXysNxXmY_oEP2_3j-24" value="alamat" style="ellipse;whiteSpace=wrap;html=1;align=center;" parent="1" vertex="1">
          <mxGeometry x="753" y="460" width="100" height="40" as="geometry" />
        </mxCell>
        <mxCell id="4RQrXysNxXmY_oEP2_3j-25" value="tenaga_pendidik" style="rounded=1;arcSize=10;whiteSpace=wrap;html=1;align=center;" parent="1" vertex="1">
          <mxGeometry x="983" y="620" width="100" height="40" as="geometry" />
        </mxCell>
        <mxCell id="4RQrXysNxXmY_oEP2_3j-26" value="mahasiswa" style="rounded=1;arcSize=10;whiteSpace=wrap;html=1;align=center;" parent="1" vertex="1">
          <mxGeometry x="823" y="620" width="100" height="40" as="geometry" />
        </mxCell>
        <mxCell id="4RQrXysNxXmY_oEP2_3j-27" value="" style="endArrow=none;html=1;rounded=0;" parent="1" source="4RQrXysNxXmY_oEP2_3j-26" target="4RQrXysNxXmY_oEP2_3j-17" edge="1">
          <mxGeometry relative="1" as="geometry">
            <mxPoint x="863" y="590" as="sourcePoint" />
            <mxPoint x="1023" y="590" as="targetPoint" />
          </mxGeometry>
        </mxCell>
        <mxCell id="4RQrXysNxXmY_oEP2_3j-28" value="" style="endArrow=none;html=1;rounded=0;" parent="1" source="4RQrXysNxXmY_oEP2_3j-25" target="4RQrXysNxXmY_oEP2_3j-17" edge="1">
          <mxGeometry relative="1" as="geometry">
            <mxPoint x="898" y="630" as="sourcePoint" />
            <mxPoint x="956" y="550" as="targetPoint" />
          </mxGeometry>
        </mxCell>
        <mxCell id="4RQrXysNxXmY_oEP2_3j-29" value="nim" style="ellipse;whiteSpace=wrap;html=1;align=center;" parent="1" vertex="1">
          <mxGeometry x="663" y="580" width="100" height="40" as="geometry" />
        </mxCell>
        <mxCell id="4RQrXysNxXmY_oEP2_3j-30" value="fakultas" style="ellipse;whiteSpace=wrap;html=1;align=center;" parent="1" vertex="1">
          <mxGeometry x="663" y="650" width="100" height="40" as="geometry" />
        </mxCell>
        <mxCell id="4RQrXysNxXmY_oEP2_3j-31" value="jabatan" style="ellipse;whiteSpace=wrap;html=1;align=center;" parent="1" vertex="1">
          <mxGeometry x="1133" y="650" width="100" height="40" as="geometry" />
        </mxCell>
        <mxCell id="4RQrXysNxXmY_oEP2_3j-32" value="home_base" style="ellipse;whiteSpace=wrap;html=1;align=center;" parent="1" vertex="1">
          <mxGeometry x="1103" y="710" width="100" height="40" as="geometry" />
        </mxCell>
        <mxCell id="4RQrXysNxXmY_oEP2_3j-33" value="" style="endArrow=none;html=1;rounded=0;" parent="1" source="4RQrXysNxXmY_oEP2_3j-29" target="4RQrXysNxXmY_oEP2_3j-26" edge="1">
          <mxGeometry relative="1" as="geometry">
            <mxPoint x="783" y="580" as="sourcePoint" />
            <mxPoint x="943" y="580" as="targetPoint" />
          </mxGeometry>
        </mxCell>
        <mxCell id="4RQrXysNxXmY_oEP2_3j-34" value="" style="endArrow=none;html=1;rounded=0;" parent="1" source="4RQrXysNxXmY_oEP2_3j-30" target="4RQrXysNxXmY_oEP2_3j-26" edge="1">
          <mxGeometry relative="1" as="geometry">
            <mxPoint x="893" y="590" as="sourcePoint" />
            <mxPoint x="1053" y="590" as="targetPoint" />
          </mxGeometry>
        </mxCell>
        <mxCell id="4RQrXysNxXmY_oEP2_3j-35" value="" style="endArrow=none;html=1;rounded=0;" parent="1" source="4RQrXysNxXmY_oEP2_3j-25" target="4RQrXysNxXmY_oEP2_3j-31" edge="1">
          <mxGeometry relative="1" as="geometry">
            <mxPoint x="893" y="590" as="sourcePoint" />
            <mxPoint x="1053" y="590" as="targetPoint" />
          </mxGeometry>
        </mxCell>
        <mxCell id="4RQrXysNxXmY_oEP2_3j-36" value="" style="endArrow=none;html=1;rounded=0;" parent="1" source="4RQrXysNxXmY_oEP2_3j-25" target="4RQrXysNxXmY_oEP2_3j-32" edge="1">
          <mxGeometry relative="1" as="geometry">
            <mxPoint x="1093" y="641" as="sourcePoint" />
            <mxPoint x="1167" y="628" as="targetPoint" />
          </mxGeometry>
        </mxCell>
        <mxCell id="4RQrXysNxXmY_oEP2_3j-37" value="" style="endArrow=none;html=1;rounded=0;" parent="1" source="4RQrXysNxXmY_oEP2_3j-22" target="4RQrXysNxXmY_oEP2_3j-10" edge="1">
          <mxGeometry relative="1" as="geometry">
            <mxPoint x="873" y="490" as="sourcePoint" />
            <mxPoint x="1033" y="490" as="targetPoint" />
          </mxGeometry>
        </mxCell>
        <mxCell id="4RQrXysNxXmY_oEP2_3j-38" value="" style="endArrow=none;html=1;rounded=0;" parent="1" source="4RQrXysNxXmY_oEP2_3j-23" target="4RQrXysNxXmY_oEP2_3j-10" edge="1">
          <mxGeometry relative="1" as="geometry">
            <mxPoint x="857" y="405" as="sourcePoint" />
            <mxPoint x="916" y="430" as="targetPoint" />
          </mxGeometry>
        </mxCell>
        <mxCell id="4RQrXysNxXmY_oEP2_3j-39" value="" style="endArrow=none;html=1;rounded=0;" parent="1" source="4RQrXysNxXmY_oEP2_3j-24" target="4RQrXysNxXmY_oEP2_3j-10" edge="1">
          <mxGeometry relative="1" as="geometry">
            <mxPoint x="853" y="443" as="sourcePoint" />
            <mxPoint x="913" y="447" as="targetPoint" />
          </mxGeometry>
        </mxCell>
        <mxCell id="4RQrXysNxXmY_oEP2_3j-40" value="npp" style="ellipse;whiteSpace=wrap;html=1;align=center;" parent="1" vertex="1">
          <mxGeometry x="1143" y="600" width="100" height="40" as="geometry" />
        </mxCell>
        <mxCell id="4RQrXysNxXmY_oEP2_3j-41" value="" style="endArrow=none;html=1;rounded=0;" parent="1" source="4RQrXysNxXmY_oEP2_3j-25" target="4RQrXysNxXmY_oEP2_3j-40" edge="1">
          <mxGeometry relative="1" as="geometry">
            <mxPoint x="913" y="640" as="sourcePoint" />
            <mxPoint x="1073" y="640" as="targetPoint" />
          </mxGeometry>
        </mxCell>
        <mxCell id="4RQrXysNxXmY_oEP2_3j-42" value="meminjam" style="shape=rhombus;perimeter=rhombusPerimeter;whiteSpace=wrap;html=1;align=center;" parent="1" vertex="1">
          <mxGeometry x="1100" y="410" width="120" height="60" as="geometry" />
        </mxCell>
        <mxCell id="412N8w5eiUQhzpS0vNHs-1" value="" style="endArrow=none;html=1;rounded=0;startArrow=ERzeroToOne;startFill=0;endSize=6;startSize=8;" edge="1" parent="1" source="4RQrXysNxXmY_oEP2_3j-10" target="4RQrXysNxXmY_oEP2_3j-42">
          <mxGeometry relative="1" as="geometry">
            <mxPoint x="990" y="450" as="sourcePoint" />
            <mxPoint x="1150" y="450" as="targetPoint" />
          </mxGeometry>
        </mxCell>
        <mxCell id="412N8w5eiUQhzpS0vNHs-2" value="" style="endArrow=ERzeroToMany;html=1;rounded=0;endFill=0;endSize=8;" edge="1" parent="1" source="4RQrXysNxXmY_oEP2_3j-42" target="4RQrXysNxXmY_oEP2_3j-1">
          <mxGeometry relative="1" as="geometry">
            <mxPoint x="980" y="460" as="sourcePoint" />
            <mxPoint x="1140" y="460" as="targetPoint" />
          </mxGeometry>
        </mxCell>
        <mxCell id="412N8w5eiUQhzpS0vNHs-5" value="tgl_pinjam" style="ellipse;whiteSpace=wrap;html=1;align=center;" vertex="1" parent="1">
          <mxGeometry x="1143" y="260" width="100" height="40" as="geometry" />
        </mxCell>
        <mxCell id="412N8w5eiUQhzpS0vNHs-6" value="tgl_kembali" style="ellipse;whiteSpace=wrap;html=1;align=center;" vertex="1" parent="1">
          <mxGeometry x="1200" y="310" width="100" height="40" as="geometry" />
        </mxCell>
        <mxCell id="412N8w5eiUQhzpS0vNHs-8" value="id_anggota" style="ellipse;whiteSpace=wrap;html=1;align=center;fontStyle=4;" vertex="1" parent="1">
          <mxGeometry x="1020" y="340" width="100" height="40" as="geometry" />
        </mxCell>
        <mxCell id="412N8w5eiUQhzpS0vNHs-9" value="id_buku" style="ellipse;whiteSpace=wrap;html=1;align=center;fontStyle=4;" vertex="1" parent="1">
          <mxGeometry x="1060" y="290" width="100" height="40" as="geometry" />
        </mxCell>
        <mxCell id="412N8w5eiUQhzpS0vNHs-10" value="" style="endArrow=none;html=1;rounded=0;" edge="1" parent="1" source="412N8w5eiUQhzpS0vNHs-8" target="4RQrXysNxXmY_oEP2_3j-42">
          <mxGeometry relative="1" as="geometry">
            <mxPoint x="1103" y="389.65999999999997" as="sourcePoint" />
            <mxPoint x="1263" y="389.65999999999997" as="targetPoint" />
          </mxGeometry>
        </mxCell>
        <mxCell id="412N8w5eiUQhzpS0vNHs-11" value="" style="endArrow=none;html=1;rounded=0;" edge="1" parent="1" source="412N8w5eiUQhzpS0vNHs-5" target="4RQrXysNxXmY_oEP2_3j-42">
          <mxGeometry relative="1" as="geometry">
            <mxPoint x="1160" y="357" as="sourcePoint" />
            <mxPoint x="1207" y="400" as="targetPoint" />
          </mxGeometry>
        </mxCell>
        <mxCell id="412N8w5eiUQhzpS0vNHs-12" value="" style="endArrow=none;html=1;rounded=0;" edge="1" parent="1" source="412N8w5eiUQhzpS0vNHs-9" target="4RQrXysNxXmY_oEP2_3j-42">
          <mxGeometry relative="1" as="geometry">
            <mxPoint x="1143" y="370" as="sourcePoint" />
            <mxPoint x="1190" y="413" as="targetPoint" />
          </mxGeometry>
        </mxCell>
        <mxCell id="412N8w5eiUQhzpS0vNHs-13" value="" style="endArrow=none;html=1;rounded=0;" edge="1" parent="1" source="412N8w5eiUQhzpS0vNHs-6" target="4RQrXysNxXmY_oEP2_3j-42">
          <mxGeometry relative="1" as="geometry">
            <mxPoint x="1199" y="310" as="sourcePoint" />
            <mxPoint x="1176" y="423" as="targetPoint" />
          </mxGeometry>
        </mxCell>
      </root>
    </mxGraphModel>
  </diagram>
</mxfile>
